<svg width="24" height="24" viewBox="0 0 24 24" fill="none" xmlns="http://www.w3.org/2000/svg">
<path fill-rule="evenodd" clip-rule="evenodd" d="M6.20495 21H17.3316C17.9455 21 18.4144 20.4521 18.3197 19.8456L16.0796 5.50946C16.0297 5.18982 15.8282 4.91409 15.5388 4.76941L12.4472 3.22361C12.1657 3.08285 11.8343 3.08285 11.5528 3.22361L8.44417 4.77793C8.16438 4.91783 7.96617 5.18061 7.90852 5.48807L5.22208 19.8157C5.10669 20.4311 5.57882 21 6.20495 21ZM14.7019 8.34203C14.183 8.15314 13.6091 8.42072 13.4202 8.9397L10.342 17.3969C10.1531 17.9159 10.4207 18.4898 10.9397 18.6786C11.4587 18.8675 12.0325 18.6 12.2214 18.081L15.2996 9.62374C15.4885 9.10476 15.2209 8.53092 14.7019 8.34203Z" fill="black"/>
</svg>
