<svg width="25" height="26" viewBox="0 0 25 26" fill="none" xmlns="http://www.w3.org/2000/svg">
<path d="M22.8736 2.51298C23.7133 1.5207 23.008 0 21.7081 0C21.259 0 20.8327 0.197728 20.5426 0.540566L11.6397 11.0622C10.6932 12.1807 10.6932 13.8193 11.6397 14.9378L20.5426 25.4594C20.8327 25.8023 21.259 26 21.7081 26C23.008 26 23.7133 24.4793 22.8736 23.487L15.6397 14.9378C14.6932 13.8193 14.6932 12.1807 15.6397 11.0622L22.8736 2.51298Z" fill="#2E2E2E"/>
<path d="M12.8736 2.51298C13.7133 1.5207 13.008 0 11.7081 0C11.259 0 10.8327 0.197728 10.5426 0.540566L1.6397 11.0622C0.693245 12.1807 0.693245 13.8193 1.6397 14.9378L10.5426 25.4594C10.8327 25.8023 11.259 26 11.7081 26C13.008 26 13.7133 24.4793 12.8736 23.487L5.6397 14.9378C4.69324 13.8193 4.69324 12.1807 5.6397 11.0622L12.8736 2.51298Z" fill="#2E2E2E"/>
</svg>
