<svg width="24" height="24" viewBox="0 0 24 24" fill="none" xmlns="http://www.w3.org/2000/svg">
<path fill-rule="evenodd" clip-rule="evenodd" d="M16.2426 17.2426C17.3284 16.1569 18 14.6569 18 13C18 9.68629 15.3137 7 12 7C8.68629 7 6 9.68629 6 13C6 14.2975 6.41184 15.4988 7.11193 16.4803C7.43264 16.9299 7.44078 17.5592 7.05025 17.9497V17.9497C6.65973 18.3403 6.02082 18.3436 5.68172 17.9077C4.62771 16.5527 4 14.8496 4 13C4 8.58172 7.58172 5 12 5C16.4183 5 20 8.58172 20 13C20 15.2091 19.1046 17.2091 17.6569 18.6569L16.2426 17.2426Z" fill="black"/>
<path d="M14.5 15.5V20.5H19.5L14.5 15.5Z" fill="black"/>
</svg>
