<svg width="25" height="26" viewBox="0 0 25 26" fill="none" xmlns="http://www.w3.org/2000/svg">
<path d="M2.12637 2.51298C1.28675 1.5207 1.99205 0 3.29188 0C3.74099 0 4.16731 0.197728 4.4574 0.540566L13.3603 11.0622C14.3068 12.1807 14.3068 13.8193 13.3603 14.9378L4.4574 25.4594C4.16731 25.8023 3.74099 26 3.29188 26C1.99205 26 1.28675 24.4793 2.12637 23.487L9.3603 14.9378C10.3068 13.8193 10.3068 12.1807 9.3603 11.0622L2.12637 2.51298Z" fill="#2E2E2E"/>
<path d="M12.1264 2.51298C11.2867 1.5207 11.992 0 13.2919 0C13.741 0 14.1673 0.197728 14.4574 0.540566L23.3603 11.0622C24.3068 12.1807 24.3068 13.8193 23.3603 14.9378L14.4574 25.4594C14.1673 25.8023 13.741 26 13.2919 26C11.992 26 11.2867 24.4793 12.1264 23.487L19.3603 14.9378C20.3068 13.8193 20.3068 12.1807 19.3603 11.0622L12.1264 2.51298Z" fill="#2E2E2E"/>
</svg>
